<svg xmlns="http://www.w3.org/2000/svg" viewBox="0 0 1000 700">
<defs><pattern id="grass" width="32" height="32" patternUnits="userSpaceOnUse"><rect width="32" height="32" fill="#82b763"/><path d="M0 32L32 0M16 32L32 16M0 16L16 0" stroke="#78aa5d" stroke-width="2" opacity=".45"/></pattern></defs>
<rect width="1000" height="700" fill="url(#grass)"/><path d="M80 540 C170 470 250 510 315 455 S445 380 520 420 650 510 760 455 890 360 955 405" fill="none" stroke="#dfd0a6" stroke-width="38"/><path d="M80 540 C170 470 250 510 315 455 S445 380 520 420 650 510 760 455 890 360 955 405" fill="none" stroke="#9e8f70" stroke-width="4"/>
<path d="M105 130 C210 60 360 105 410 190 S360 345 470 330 630 160 760 160 900 250 850 355" fill="none" stroke="#ca3d3d" stroke-width="15"/><path d="M105 130 C210 60 360 105 410 190 S360 345 470 330 630 160 760 160 900 250 850 355" fill="none" stroke="#f0d763" stroke-width="5"/>
<ellipse cx="730" cy="520" rx="120" ry="85" fill="#5db8d5" stroke="#34778f" stroke-width="6"/><rect x="120" y="360" width="125" height="80" rx="6" fill="#efc35a" stroke="#704e28" stroke-width="6"/><polygon points="110,360 182,305 255,360" fill="#c95a45" stroke="#704e28" stroke-width="6"/><rect x="400" y="500" width="115" height="95" fill="#68a5c6" stroke="#355a6a" stroke-width="6"/><polygon points="390,500 458,445 525,500" fill="#e8e082" stroke="#355a6a" stroke-width="6"/>
<g fill="#335f37"><circle cx="90" cy="260" r="35"/><circle cx="180" cy="220" r="28"/><circle cx="565" cy="105" r="32"/><circle cx="645" cy="90" r="25"/><circle cx="910" cy="110" r="30"/><circle cx="880" cy="600" r="36"/><circle cx="300" cy="610" r="30"/></g>
<g font-family="Verdana,Arial" font-size="22" font-weight="bold" fill="#143329" stroke="#f1f6e9" stroke-width="5" paint-order="stroke"><text x="38" y="42">OpenRCT2 Server Park · Demo Map</text><text x="130" y="400">Entrance</text><text x="535" y="145">Coaster</text><text x="680" y="530">Lake</text></g></svg>
